<?xml version="1.0" standalone="no"?>
<!DOCTYPE svg PUBLIC "-//W3C//DTD SVG 20010904//EN"
 "http://www.w3.org/TR/2001/REC-SVG-20010904/DTD/svg10.dtd">
<svg version="1.0" xmlns="http://www.w3.org/2000/svg"
 width="91.000000pt" height="91.000000pt" viewBox="0 0 91.000000 91.000000"
 preserveAspectRatio="xMidYMid meet">
<metadata>
Created by potrace 1.14, written by Peter Selinger 2001-2017
</metadata>
<g transform="translate(0.000000,91.000000) scale(0.100000,-0.100000)"
fill="#000000" stroke="none">
<path d="M21 801 c-17 -11 -22 -151 -6 -151 7 0 7 -3 0 -8 -5 -4 -10 -29 -10
-57 0 -27 5 -53 10 -57 7 -5 7 -8 0 -8 -5 0 -10 -25 -10 -55 0 -30 5 -55 10
-55 7 0 7 -3 0 -8 -13 -9 -13 -112 0 -112 7 0 7 -3 0 -8 -5 -4 -10 -29 -10
-57 0 -27 5 -53 10 -57 7 -5 6 -8 0 -8 -14 0 -14 -40 0 -41 5 0 29 -2 52 -3
26 -2 40 0 37 6 -4 6 3 5 14 -1 26 -14 35 -14 26 0 -4 8 -1 8 12 2 11 -4 30
-8 44 -8 l25 0 3 203 c1 111 6 202 11 202 9 0 37 -89 33 -102 -1 -5 2 -8 6 -8
5 0 9 -6 9 -12 0 -12 57 -205 70 -238 4 -8 7 -18 7 -22 1 -3 4 -10 8 -14 11
-10 137 -11 131 -1 -3 5 4 4 15 -2 17 -9 21 -7 26 12 3 12 5 24 4 27 -1 3 4
14 10 26 10 20 22 64 24 92 1 6 5 12 10 12 4 0 8 8 8 17 0 27 63 213 73 213 7
0 11 -215 7 -357 0 -29 4 -43 12 -44 7 0 23 -2 36 -5 15 -3 21 0 16 7 -5 8 -1
8 14 0 27 -14 35 -14 26 1 -5 7 -3 8 5 3 7 -4 32 -8 56 -9 32 -1 46 3 54 16 8
13 8 18 0 18 -8 0 -8 4 0 13 8 10 7 17 -1 25 -9 9 -9 12 0 12 9 0 10 5 3 19
-6 10 -7 21 -4 25 10 9 10 56 0 56 -4 0 -3 9 3 20 6 11 7 20 3 20 -10 0 -9 63
1 78 4 7 2 12 -4 12 -6 0 -8 5 -4 12 10 15 11 78 1 78 -4 0 -3 9 3 20 8 14 8
20 0 20 -7 0 -8 6 0 19 7 14 7 22 0 26 -8 5 -8 11 0 20 8 9 8 15 0 20 -7 4 -7
12 0 26 8 13 7 19 0 19 -7 0 -8 6 -1 17 5 10 5 26 1 39 -5 13 -5 24 0 26 15 5
-3 25 -29 33 -18 6 -22 4 -15 -6 6 -11 5 -12 -7 -2 -12 10 -18 10 -27 1 -7 -7
-12 -8 -12 -2 0 12 -29 12 -46 1 -6 -3 -14 -3 -18 0 -8 9 -86 10 -86 2 0 -3
-11 -5 -25 -3 -19 2 -33 -7 -53 -32 -15 -19 -27 -37 -28 -41 -1 -18 -17 -79
-22 -88 -4 -5 -7 -14 -7 -20 -1 -13 -24 -95 -32 -115 -9 -21 -9 -21 -17 -62
-5 -21 -12 -38 -17 -38 -8 0 -22 18 -26 35 -7 33 -15 62 -48 170 -20 66 -37
126 -37 132 -2 20 -46 56 -70 59 -13 1 -23 3 -23 4 0 1 -19 3 -42 4 -28 2 -40
-1 -36 -8 4 -6 0 -5 -8 1 -12 10 -18 10 -27 1 -7 -7 -12 -8 -12 -2 0 11 -71
11 -90 -1 -9 -5 -11 -4 -6 3 9 14 6 15 -13 3z"/>
</g>
</svg>
