<?xml version="1.0" standalone="no"?>
<!DOCTYPE svg PUBLIC "-//W3C//DTD SVG 20010904//EN"
 "http://www.w3.org/TR/2001/REC-SVG-20010904/DTD/svg10.dtd">
<svg version="1.0" xmlns="http://www.w3.org/2000/svg"
 width="173.000000pt" height="173.000000pt" viewBox="0 0 173.000000 173.000000"
 preserveAspectRatio="xMidYMid meet">
<metadata>
Created by potrace 1.14, written by Peter Selinger 2001-2017
</metadata>
<g transform="translate(0.000000,173.000000) scale(0.100000,-0.100000)"
fill="#000000" stroke="none">
<path d="M9 1213 c-6 -53 -3 -98 8 -108 7 -8 13 -20 13 -29 0 -8 5 -18 10 -21
8 -5 7 -11 -1 -21 -8 -10 -8 -14 0 -14 6 0 10 -6 8 -12 -1 -7 3 -12 10 -11 7
2 10 -6 8 -17 -2 -11 2 -26 10 -34 8 -7 11 -16 8 -20 -4 -3 0 -6 7 -6 7 0 10
-3 7 -7 -4 -3 1 -12 11 -20 9 -8 11 -12 5 -8 -9 4 -11 1 -7 -9 3 -9 12 -16 20
-16 8 0 11 -6 7 -17 -5 -12 -2 -15 10 -10 9 3 16 3 16 -1 -3 -20 15 -51 32
-55 13 -4 17 -11 13 -21 -4 -9 -3 -16 2 -15 17 4 44 -13 37 -24 -4 -6 0 -8 10
-4 9 3 16 3 16 -1 -3 -20 2 -33 11 -27 5 3 10 -1 10 -10 0 -9 4 -14 9 -10 6 3
14 -3 20 -12 8 -14 11 -15 11 -3 0 9 6 5 15 -10 7 -14 16 -24 19 -22 18 7 35
0 41 -19 5 -16 10 -18 21 -8 11 9 15 8 20 -6 5 -13 9 -14 15 -3 7 11 9 11 9
-1 0 -11 3 -11 15 -1 12 10 14 8 11 -7 -3 -15 1 -19 25 -17 16 1 32 -3 35 -8
4 -6 10 -5 16 3 7 11 11 11 15 2 2 -7 9 -13 14 -13 6 0 7 6 3 13 -4 6 3 3 16
-8 13 -11 20 -15 17 -8 -9 14 76 8 105 -8 16 -9 19 -8 13 2 -6 9 -3 11 9 6 9
-4 15 -3 12 2 -3 5 1 11 9 15 8 3 17 0 21 -6 4 -6 3 -8 -3 -5 -5 3 -10 -1 -10
-9 0 -10 4 -11 11 -4 14 14 29 13 20 -2 -4 -7 -3 -8 5 -4 8 5 9 12 2 20 -7 8
-5 12 9 12 10 0 17 -3 14 -7 -2 -4 3 -10 12 -13 8 -3 13 -2 10 3 -6 10 80 4
97 -6 6 -3 7 -1 4 4 -4 6 0 14 9 17 8 3 12 2 9 -4 -8 -13 1 -13 28 2 19 10 21
9 9 -4 -10 -13 -10 -18 -1 -24 8 -4 9 -3 5 4 -10 16 6 15 24 0 12 -11 12 -10
2 3 -10 14 -10 18 2 22 9 4 18 1 22 -5 5 -7 2 -8 -7 -3 -12 8 -12 6 0 -8 15
-19 26 -23 15 -5 -5 8 -2 9 11 4 16 -6 16 -4 4 10 -13 16 -12 16 6 7 25 -13
74 -14 98 -2 10 6 17 6 17 0 0 -5 -5 -11 -12 -13 -7 -3 -5 -7 6 -11 11 -5 15
-3 10 5 -5 8 -2 9 10 5 9 -4 15 -3 12 2 -3 5 1 12 10 15 21 8 24 8 24 -5 0 -5
-4 -8 -8 -5 -5 3 -9 -2 -9 -10 0 -10 4 -11 11 -4 14 14 29 13 20 -2 -4 -7 -3
-8 5 -4 6 4 9 11 6 16 -3 4 2 11 11 14 8 3 13 2 10 -3 -3 -5 1 -12 10 -15 8
-3 13 -2 10 3 -6 10 80 4 97 -6 6 -3 7 -1 4 4 -4 6 0 14 9 17 8 3 12 2 9 -4
-8 -13 1 -13 28 2 19 10 21 9 9 -4 -10 -13 -10 -18 -1 -24 8 -4 9 -3 5 4 -10
16 6 15 24 -1 12 -10 12 -9 2 4 -10 14 -10 18 2 22 9 4 18 1 22 -5 4 -7 3 -8
-4 -4 -18 11 -14 0 5 -15 14 -12 16 -12 8 0 -6 11 -4 13 10 7 16 -6 16 -4 4
10 -13 16 -12 16 6 7 27 -14 98 -16 90 -2 -4 6 3 8 19 5 31 -5 32 -3 9 15 -14
12 -16 12 -8 0 6 -10 4 -12 -5 -6 -10 6 -8 12 8 24 20 15 24 42 9 57 -3 4 -4
-5 -1 -20 2 -15 0 -26 -6 -26 -6 0 -8 5 -5 10 3 6 0 10 -7 10 -8 0 -9 3 -3 8
12 8 13 27 3 37 -4 4 0 18 9 31 12 19 12 23 2 19 -11 -4 -14 8 -14 56 0 50 -3
63 -17 67 -9 2 -14 10 -11 18 3 8 0 14 -7 14 -6 0 -9 4 -6 9 9 14 -5 42 -16
34 -7 -4 -9 3 -6 20 4 18 1 24 -9 20 -7 -3 -13 2 -13 11 0 9 -4 16 -9 16 -5 0
-13 9 -16 20 -3 11 -11 20 -17 20 -16 0 -48 41 -41 53 4 6 0 8 -10 4 -17 -7
-41 15 -29 28 4 5 1 5 -5 1 -7 -4 -13 -2 -13 4 0 6 -4 8 -10 5 -5 -3 -10 -1
-10 6 0 7 -10 9 -25 7 -22 -5 -23 -3 -13 16 10 19 10 20 -5 7 -10 -8 -17 -9
-17 -3 0 6 -9 9 -20 7 -11 -2 -20 1 -20 6 0 6 -4 7 -10 4 -5 -3 -10 0 -10 7 0
9 -13 13 -40 12 -22 0 -40 3 -40 8 0 5 -5 6 -12 2 -18 -11 -59 -11 -65 0 -3 5
-1 6 5 2 8 -5 10 -1 6 9 -6 14 -9 13 -21 -5 -11 -16 -18 -18 -28 -10 -15 12
-36 10 -48 -5 -5 -5 -6 -1 -3 11 4 14 2 21 -8 21 -8 0 -12 -5 -10 -12 3 -6 -6
-10 -23 -9 -16 0 -32 -4 -36 -10 -5 -6 -6 -2 -3 10 4 14 2 21 -8 21 -8 0 -12
-6 -9 -13 3 -9 -3 -11 -19 -7 -18 4 -20 3 -8 -6 9 -7 10 -11 3 -11 -20 0 -24
18 -6 29 16 9 15 10 -4 8 -13 -1 -23 -7 -23 -13 0 -14 -25 -25 -35 -16 -10 11
-49 9 -58 -3 -5 -6 -7 -3 -4 7 3 9 -1 19 -9 22 -9 3 -12 1 -9 -4 7 -12 -8 -14
-19 -3 -4 4 -21 8 -37 9 -21 1 -29 -3 -25 -12 3 -9 0 -11 -11 -7 -12 5 -14 3
-8 -7 5 -8 4 -11 -3 -6 -6 4 -9 12 -6 19 3 8 -9 12 -36 13 -22 1 -40 -2 -40
-6 0 -4 14 -6 30 -5 17 1 30 -1 30 -5 0 -11 -27 -20 -35 -12 -10 11 -49 9 -58
-3 -5 -6 -7 -3 -4 7 3 9 -1 19 -9 22 -9 3 -12 1 -9 -4 5 -9 -1 -12 -21 -9 -4
0 -11 -5 -15 -13 -7 -10 -9 -10 -9 0 0 7 -4 10 -10 7 -5 -3 -10 -1 -10 5 0 6
11 8 26 6 15 -3 23 -2 20 2 -4 4 -21 7 -37 8 -25 1 -29 -2 -24 -20 4 -12 3
-16 -2 -11 -4 6 -17 11 -28 11 -11 0 -24 -5 -28 -11 -5 -6 -7 -3 -4 7 3 9 -1
19 -9 22 -9 3 -12 1 -9 -4 7 -12 -8 -14 -19 -3 -13 13 -68 11 -62 -2 2 -8 -5
-11 -22 -10 -15 1 -31 -3 -35 -9 -6 -7 -7 -5 -4 6 3 9 0 19 -8 22 -10 3 -12 0
-8 -12 6 -15 5 -16 -12 -2 -10 8 -31 15 -47 16 -24 1 -28 -2 -23 -20 4 -12 3
-16 -2 -11 -4 6 -17 11 -28 11 -11 0 -24 -5 -28 -11 -5 -6 -7 -3 -4 7 3 9 -1
19 -9 22 -9 3 -12 1 -9 -4 3 -6 1 -11 -4 -11 -14 -2 -30 -6 -33 -9 -10 -8 -39
-6 -45 2 -3 7 -1 8 5 4 8 -5 10 -2 6 8 -7 17 -13 21 -15 9z m221 -15 c0 -4 -4
-10 -10 -13 -5 -3 -10 -1 -10 5 0 6 -4 8 -10 5 -5 -3 -10 -2 -10 4 0 5 9 9 20
8 11 -1 20 -5 20 -9z m160 0 c0 -4 -4 -10 -10 -13 -5 -3 -10 -1 -10 5 0 6 -4
8 -10 5 -5 -3 -10 -2 -10 4 0 5 9 9 20 8 11 -1 20 -5 20 -9z m400 0 c0 -4 -4
-10 -10 -13 -5 -3 -10 -1 -10 5 0 6 -4 8 -10 5 -5 -3 -10 -2 -10 4 0 5 9 9 20
8 11 -1 20 -5 20 -9z m-763 -44 c-3 -4 -2 -15 4 -25 7 -14 6 -17 -5 -13 -8 3
-13 13 -11 22 5 23 4 22 12 22 3 0 3 -3 0 -6z m723 -606 c0 -4 -4 -8 -9 -8 -6
0 -12 4 -15 8 -3 5 1 9 9 9 8 0 15 -4 15 -9z"/>
<path d="M30 1211 c0 -15 18 -23 25 -11 4 6 12 7 18 4 7 -4 9 -3 4 1 -11 13
-47 17 -47 6z"/>
<path d="M870 1208 c0 -6 3 -8 7 -5 3 4 12 2 19 -4 8 -7 14 -7 19 1 3 5 5 10
3 11 -32 8 -48 7 -48 -3z"/>
<path d="M1025 1210 c-3 -6 1 -7 9 -4 18 7 21 14 7 14 -6 0 -13 -4 -16 -10z"/>
<path d="M1104 1208 c-4 -7 -3 -8 5 -4 6 4 18 3 26 -4 9 -7 15 -8 20 0 3 5 5
10 3 11 -32 7 -48 7 -54 -3z"/>
<path d="M1711 686 c-8 -10 -9 -16 -1 -21 5 -3 10 -5 11 -3 4 18 7 38 4 38 -1
0 -8 -6 -14 -14z"/>
</g>
</svg>
